<svg xmlns="http://www.w3.org/2000/svg" viewBox="0 0 400 300"><defs><linearGradient id="metal" x2="1" y2="1"><stop stop-color="#454b58"/><stop offset=".5" stop-color="#202530"/><stop offset="1" stop-color="#10141d"/></linearGradient><linearGradient id="rgb"><stop stop-color="#c2f660"/><stop offset=".5" stop-color="#58dde0"/><stop offset="1" stop-color="#9b75f5"/></linearGradient><radialGradient id="screen"><stop stop-color="#587f38"/><stop offset="1" stop-color="#111e20"/></radialGradient></defs><ellipse cx="200" cy="263" rx="100" ry="12" fill="#000" opacity=".3"/><path d="M112 174V134a88 88 0 0 1 176 0v40" fill="none" stroke="#141820" stroke-width="30"/><path d="M112 167V132a88 88 0 0 1 176 0v35" fill="none" stroke="#59616e" stroke-width="5"/><path d="M128 108a76 76 0 0 1 145 0" fill="none" stroke="#343c49" stroke-width="16"/><rect x="88" y="145" width="60" height="98" rx="23" fill="url(#metal)" stroke="#667383"/><rect x="253" y="145" width="60" height="98" rx="23" fill="url(#metal)" stroke="#667383"/><rect x="101" y="160" width="30" height="66" rx="14" fill="none" stroke="url(#rgb)" stroke-width="3"/><rect x="268" y="160" width="30" height="66" rx="14" fill="none" stroke="url(#rgb)" stroke-width="3"/><path d="M283 230q0 33-49 29" fill="none" stroke="#667383" stroke-width="6"/><rect x="215" y="252" width="31" height="13" rx="6" fill="#c2f660"/></svg>